<svg xmlns="http://www.w3.org/2000/svg" xmlns:xlink="http://www.w3.org/1999/xlink" version="1.1" width="256" height="256" viewBox="0 0 256 256" xml:space="preserve">

<defs>
</defs>
<g style="stroke: none; stroke-width: 0; stroke-dasharray: none; stroke-linecap: butt; stroke-linejoin: miter; stroke-miterlimit: 10; fill: none; fill-rule: nonzero; opacity: 1;" transform="translate(1.4065934065934016 1.4065934065934016) scale(2.81 2.81)" >
	<path d="M 68.956 42.207 h -0.458 c -1.023 0 -1.994 0.229 -2.862 0.64 c -0.631 -3.059 -3.346 -5.365 -6.588 -5.365 H 58.59 c -1.168 0 -2.268 0.299 -3.226 0.825 c -1.006 -2.449 -3.416 -4.178 -6.224 -4.178 h -0.459 c -0.97 0 -1.892 0.206 -2.725 0.577 v -9.778 c 0 -3.708 -3.017 -6.725 -6.725 -6.725 h -0.458 c -3.708 0 -6.725 3.017 -6.725 6.725 v 24.905 l -3.102 2.355 c -2.443 1.854 -3.993 4.554 -4.362 7.6 c -0.369 3.046 0.49 6.037 2.419 8.423 l 9.629 11.903 v 4.745 c 0 2.835 2.306 5.141 5.141 5.141 h 24.008 c 2.835 0 5.141 -2.306 5.141 -5.141 l 0.001 -4.504 c 3.073 -3.855 4.757 -8.643 4.757 -13.563 v -17.86 C 75.681 45.224 72.664 42.207 68.956 42.207 z M 71.681 66.792 c 0 4.22 -1.52 8.319 -4.277 11.544 c -0.311 0.362 -0.48 0.823 -0.48 1.3 v 5.224 c 0 0.629 -0.512 1.141 -1.141 1.141 H 41.774 c -0.629 0 -1.141 -0.512 -1.141 -1.141 v -5.453 c 0 -0.458 -0.157 -0.902 -0.445 -1.258 L 30.115 65.695 c -1.243 -1.536 -1.797 -3.463 -1.559 -5.426 c 0.238 -1.962 1.236 -3.7 2.81 -4.896 l 0.683 -0.519 v 5.738 c 0 1.104 0.896 2 2 2 s 2 -0.896 2 -2 v -9.749 c 0 -0.014 0 -0.026 0 -0.04 V 24.928 c 0 -1.502 1.222 -2.725 2.725 -2.725 h 0.458 c 1.502 0 2.725 1.223 2.725 2.725 v 15.926 c 0 0 0 0 0 0.001 s 0 0 0 0.001 l 0.01 13.248 c 0.001 1.104 0.896 1.998 2 1.998 c 0 0 0.001 0 0.001 0 c 1.104 -0.001 2 -0.896 1.999 -2.002 l -0.01 -13.246 c 0 -1.502 1.223 -2.725 2.725 -2.725 h 0.459 c 1.502 0 2.725 1.223 2.725 2.725 v 3.353 c 0 0 0 0.001 0 0.001 c 0 0 0 0.001 0 0.001 l 0.01 9.895 c 0.001 1.104 0.896 1.998 2 1.998 c 0.001 0 0.001 0 0.002 0 c 1.104 -0.001 1.999 -0.897 1.998 -2.002 l -0.01 -9.893 c 0 -1.502 1.223 -2.725 2.725 -2.725 h 0.458 c 1.503 0 2.726 1.223 2.726 2.725 v 4.197 c -0.006 0.066 -0.02 0.13 -0.02 0.197 l 0.01 5.504 c 0.002 1.104 0.896 1.996 2 1.996 c 0.001 0 0.002 0 0.004 0 c 1.104 -0.002 1.998 -0.899 1.996 -2.004 l -0.009 -4.982 c 0.006 -0.062 0.019 -0.121 0.019 -0.185 c 0 -1.502 1.223 -2.725 2.725 -2.725 h 0.458 c 1.502 0 2.725 1.223 2.725 2.725 V 66.792 z" style="stroke: none; stroke-width: 1; stroke-dasharray: none; stroke-linecap: butt; stroke-linejoin: miter; stroke-miterlimit: 10; fill: rgb(0,0,0); fill-rule: nonzero; opacity: 1;" transform=" matrix(1 0 0 1 0 0) " stroke-linecap="round" />
	<path d="M 25.715 46.994 c -0.677 0 -1.349 -0.212 -1.924 -0.63 c -1.017 -0.739 -1.516 -1.967 -1.304 -3.206 l 2.218 -12.93 l -9.395 -9.159 c -0.9 -0.877 -1.218 -2.165 -0.83 -3.36 c 0.389 -1.195 1.402 -2.05 2.646 -2.23 l 12.984 -1.887 l 5.807 -11.765 C 36.473 0.701 37.598 0 38.855 0 c 0 0 0 0 0.001 0 c 1.256 0 2.383 0.7 2.939 1.827 l 5.807 11.765 l 12.983 1.887 c 1.244 0.181 2.258 1.035 2.646 2.23 c 0.389 1.195 0.071 2.482 -0.828 3.36 l -9.667 9.424 c -0.792 0.771 -2.057 0.755 -2.829 -0.036 c -0.771 -0.791 -0.754 -2.057 0.036 -2.828 l 8.619 -8.402 l -11.91 -1.73 c -1.068 -0.155 -1.991 -0.825 -2.469 -1.793 L 38.856 4.911 l -5.327 10.792 c -0.478 0.967 -1.4 1.638 -2.467 1.793 l -11.912 1.73 l 8.619 8.402 c 0.772 0.752 1.125 1.836 0.943 2.9 L 26.664 42.47 c 0.865 -0.207 1.798 0.19 2.232 1.016 c 0.514 0.978 0.138 2.187 -0.84 2.701 l -0.814 0.428 C 26.759 46.868 26.235 46.994 25.715 46.994 z" style="stroke: none; stroke-width: 1; stroke-dasharray: none; stroke-linecap: butt; stroke-linejoin: miter; stroke-miterlimit: 10; fill: rgb(0,0,0); fill-rule: nonzero; opacity: 1;" transform=" matrix(1 0 0 1 0 0) " stroke-linecap="round" />
</g>
</svg>