<?xml version="1.0" standalone="no"?>

<!DOCTYPE svg PUBLIC "-//W3C//DTD SVG 20010904//EN"

 "http://www.w3.org/TR/2001/REC-SVG-20010904/DTD/svg10.dtd">

<svg version="1.0" xmlns="http://www.w3.org/2000/svg"

 width="512.000000pt" height="512.000000pt" viewBox="0 0 512.000000 512.000000"

 preserveAspectRatio="xMidYMid meet">

<path fill="#0a0e17" stroke="none" d="
M101 511

C96 508 96 510 112 436

C122 387 127 367 128 366

C129 365 131 364 132 364

L135 364

L135 362

C137 354 138 350 138 349

L138 347

L133 347

C121 347 111 341 106 331

C104 327 104 325 104 319

C104 313 105 310 108 306

C112 300 118 295 125 294

L131 293

L131 284

L131 276

L128 275

C126 275 125 273 124 272

C123 271 123 244 123 182

C124 94 124 94 126 88

C132 76 143 67 155 65

C163 64 177 64 181 65

C182 66 184 67 184 69

L185 72

L194 72

L202 72

L202 68

C202 62 204 57 208 53

C213 48 218 45 225 44

L232 44

L232 31

C232 20 233 18 235 13

C236 11 239 7 242 5

C251 -2 264 -1 273 7

C278 13 280 19 280 33

L280 44

L286 44

C290 45 295 46 297 47

C305 51 310 59 310 68

L310 72

L318 72

L327 72

L328 69

C328 67 330 66 331 65

C335 64 349 64 357 65

C369 67 380 76 386 88

C389 94 389 94 389 182

C389 244 389 271 388 272

C387 273 386 275 384 275

L381 276

L381 284

L381 293

L387 294

C394 295 400 300 404 306

C407 311 408 313 408 319

C408 326 408 328 406 332

C401 342 391 347 379 347

L374 347

L374 349

C374 350 375 354 377 362

L377 364

L380 364

C381 364 383 365 384 366

C385 367 390 387 400 436

C416 510 416 508 410 511

C409 512 400 512 387 512

C367 512 366 512 364 510

C361 508 360 504 352 469

C348 447 344 429 343 429

C343 428 330 428 313 428

L284 428

L284 444

C284 461 283 464 279 466

C278 467 269 467 256 467

C227 467 230 469 229 446

L229 429

L199 428

C183 428 169 428 169 429

C168 429 164 447 160 469

C152 504 151 508 148 510

C146 512 145 512 125 512

C112 512 103 511 101 511

Z

M229 365

L229 347

L203 347

L177 347

L176 352

C176 354 175 358 174 360

L174 364

L175 364

C176 364 177 365 178 366

C180 368 180 369 180 375

L179 382

L204 382

L229 382

L229 365

Z

M332 375

C332 369 332 368 334 366

C335 365 336 364 337 364

L338 364

L338 360

C337 358 336 354 336 352

L335 347

L309 347

L284 347

L284 365

L284 382

L309 382

L333 382

L332 375

Z

"/>

<path fill="#2b3d64" stroke="none" d="
M101 511

C96 508 96 510 112 436

C122 387 127 367 128 366

C129 365 131 364 132 364

L135 364

L135 362

C137 354 138 350 138 349

L138 347

L133 347

C121 347 111 341 106 331

C104 327 104 325 104 319

C104 313 105 310 108 306

C112 300 118 295 125 294

L131 293

L131 284

L131 276

L128 275

C123 274 123 277 123 181

C124 93 124 93 127 87

C132 76 143 67 155 65

C163 64 177 64 181 65

C182 66 184 67 184 69

L185 72

L194 72

L202 72

L202 68

C202 62 204 57 208 53

C212 48 218 45 226 44

L232 44

L232 31

C232 20 233 18 235 13

C236 11 239 7 242 5

C251 -2 264 -1 273 7

C278 13 280 19 280 33

L280 44

L286 44

C300 46 310 55 310 68

L310 72

L318 72

L327 72

L328 69

C328 67 330 66 331 65

C335 64 349 64 357 65

C369 67 380 76 385 87

C389 93 389 93 389 181

C389 277 389 274 384 275

L381 276

L381 284

L381 293

L387 294

C394 295 400 300 404 306

C407 311 408 313 408 319

C408 326 408 328 406 332

C401 342 391 347 379 347

L374 347

L374 349

C374 350 375 354 377 362

L377 364

L380 364

C381 364 383 365 384 366

C385 367 390 387 400 436

C416 510 416 508 410 511

C409 512 400 512 387 512

C366 512 366 512 363 509

C361 507 360 501 353 469

C348 448 344 431 344 430

L343 428

L314 428

L284 428

L284 444

C284 461 283 464 279 466

C278 467 268 467 256 467

C227 467 230 469 229 446

L229 429

L199 428

L169 428

L168 430

C168 431 164 448 159 469

C152 501 151 507 149 509

C146 512 146 512 125 512

C112 512 103 511 101 511

Z

M229 365

L229 347

L203 347

L177 347

L176 352

C176 354 175 358 174 360

L174 364

L175 364

C176 364 177 365 178 366

C180 368 180 369 180 375

L179 382

L204 382

L229 382

L229 365

Z

M332 375

C332 369 332 368 334 366

C335 365 336 364 337 364

L338 364

L338 360

C337 358 336 354 336 352

L335 347

L309 347

L284 347

L284 365

L284 382

L309 382

L333 382

L332 375

Z

"/>

<path fill="#ff0000" stroke="none" d="
M115 496

L114 495

L118 477

C120 468 124 449 127 436

C130 423 134 404 136 395

C142 368 142 370 138 366

C135 363 135 363 137 355

L139 347

L158 347

L177 347

L176 349

C176 351 176 355 175 358

C174 362 173 363 171 364

C166 366 166 366 160 394

C158 405 154 423 152 433

C147 454 140 486 139 491

C139 493 138 495 138 496

C137 497 117 498 115 496

Z

M374 496

C374 495 373 493 373 491

C372 486 365 454 360 433

C358 423 354 405 352 394

C346 366 346 366 341 364

C339 363 338 362 337 358

C336 355 336 351 336 349

L336 347

L354 347

L373 347

L375 355

C377 363 377 363 374 366

C372 368 371 370 371 370

C371 371 373 381 375 392

C378 403 382 423 385 436

C388 449 392 468 394 477

L398 495

L397 496

C395 498 375 497 374 496

Z

M244 451

C244 450 244 445 244 439

L245 429

L256 428

C264 428 268 428 268 429

C269 431 269 448 268 450

L268 452

L256 452

L245 452

L244 451

Z

M172 412

C172 412 172 408 173 404

L175 398

L256 398

L337 398

L339 404

C340 408 340 412 340 412

L339 414

L256 414

L173 414

L172 412

Z

M244 381

C244 380 244 372 244 363

L245 348

L257 348

L269 348

L269 365

L269 382

L257 382

L245 382

L244 381

Z

M125 330

C119 328 117 320 121 314

C124 308 116 308 256 308

C396 308 388 308 391 314

C393 318 393 324 391 327

C388 332 395 332 256 332

C145 332 128 332 125 330

Z

M132 293

C131 293 131 289 131 285

C131 277 131 277 135 273

C138 270 138 270 138 184

C138 99 138 99 140 93

C145 83 152 80 169 79

C181 79 181 79 183 75

C185 72 186 72 194 72

L202 72

L202 75

C202 79 205 87 208 91

C209 93 213 95 215 97

C220 99 221 99 256 99

C291 99 292 99 297 97

C299 95 303 93 304 91

C307 87 310 79 310 75

L310 72

L318 72

C326 72 327 72 329 75

C331 79 331 79 343 79

C353 79 356 80 360 82

C366 84 369 89 372 95

C374 98 374 103 374 184

C374 270 374 270 378 274

C381 277 381 277 381 285

L381 294

L256 294

C188 294 132 294 132 293

Z

M221 82

C218 80 218 79 218 72

C218 65 218 64 221 62

C223 60 224 60 256 60

C288 60 289 60 291 62

C294 64 294 65 294 72

C294 79 294 80 291 82

C289 84 288 84 256 84

C224 84 223 84 221 82

Z

M248 44

C246 42 247 24 248 20

C251 14 261 14 264 20

C265 24 266 42 264 44

C263 44 260 45 256 45

C252 45 249 44 248 44

Z

"/>

<path fill="#858582" stroke="none" d="
M115 496

L114 495

L118 477

C120 468 124 449 127 436

C130 423 134 404 136 395

C142 368 142 370 138 366

C135 363 135 363 137 355

L139 347

L158 347

L177 347

L176 349

C176 351 176 355 175 358

C174 362 173 363 171 364

C166 366 166 366 160 394

C158 405 154 423 152 433

C147 454 140 486 139 491

C139 493 138 495 138 496

C137 497 117 498 115 496

Z

M374 496

C374 495 373 493 373 491

C372 486 365 454 360 433

C358 423 354 405 352 394

C346 366 346 366 341 364

C339 363 338 362 337 358

C336 355 336 351 336 349

L336 347

L354 347

L373 347

L375 355

C377 363 377 363 374 366

C372 368 371 370 371 370

C371 371 373 381 375 392

C378 403 382 423 385 436

C388 449 392 468 394 477

L398 495

L397 496

C395 498 375 497 374 496

Z

M244 451

C244 450 244 445 244 439

L245 429

L256 428

C264 428 268 428 268 429

C269 431 269 448 268 450

L268 452

L256 452

L245 452

L244 451

Z

M172 412

C172 412 172 408 173 404

L175 398

L256 398

L337 398

L339 404

C340 408 340 412 340 412

L339 414

L256 414

L173 414

L172 412

Z

M244 381

C244 380 244 372 244 363

L245 348

L257 348

L269 348

L269 365

L269 382

L257 382

L245 382

L244 381

Z

M125 330

C119 328 117 320 121 314

C124 308 116 308 256 308

C396 308 388 308 391 314

C393 318 393 324 391 327

C388 332 395 332 256 332

C145 332 128 332 125 330

Z

M132 293

C131 293 131 289 131 285

C131 277 131 277 135 273

C138 270 138 270 138 184

C138 99 138 99 140 93

C145 83 152 80 169 79

C181 79 181 79 183 75

C185 72 186 72 194 72

L202 72

L202 75

C202 79 205 87 208 91

C209 93 213 95 215 97

C220 99 221 99 256 99

C291 99 292 99 297 97

C299 95 303 93 304 91

C307 87 310 79 310 75

L310 72

L318 72

C326 72 327 72 329 75

C331 79 331 79 343 79

C353 79 356 80 360 82

C366 84 369 89 372 95

C374 98 374 103 374 184

C374 270 374 270 378 274

C381 277 381 277 381 285

L381 294

L256 294

C188 294 132 294 132 293

Z

M221 82

C218 80 218 79 218 72

C218 65 218 64 221 62

C223 60 224 60 256 60

C288 60 289 60 291 62

C294 64 294 65 294 72

C294 79 294 80 291 82

C289 84 288 84 256 84

C224 84 223 84 221 82

Z

M248 44

C246 42 247 24 248 20

C251 14 261 14 264 20

C265 24 266 42 264 44

C263 44 260 45 256 45

C252 45 249 44 248 44

Z

"/>

<path fill="#27ccf9" stroke="none" d="
M116 494

C116 494 119 481 122 467

C133 415 135 405 138 389

C140 380 142 372 142 370

C142 369 141 367 139 365

C137 363 136 362 137 359

C137 357 138 354 138 352

L139 348

L158 348

L176 348

L176 349

C176 349 176 351 175 353

C175 356 174 359 174 360

L173 363

L171 363

C167 363 165 367 161 384

C157 403 152 426 144 464

C141 479 138 492 137 493

L137 495

L126 495

L116 495

L116 494

Z

M375 493

C374 492 371 479 368 464

C360 426 355 403 351 384

C347 367 345 363 341 363

L339 363

L338 360

C338 359 337 356 337 353

C336 351 336 349 336 349

L336 348

L354 348

L373 348

L374 355

C376 363 376 363 373 365

C371 367 370 369 370 370

C370 372 372 380 374 389

C377 405 379 415 390 467

C393 481 396 494 396 494

L396 495

L386 495

L375 495

L375 493

Z

M245 450

C245 449 245 444 245 439

L246 430

L256 429

L267 429

L267 430

C267 431 267 436 267 441

L267 451

L256 451

L246 451

L245 450

Z

M173 411

C173 411 174 408 174 405

L176 399

L256 399

L336 399

L338 405

C338 408 339 411 339 411

L339 412

L256 412

L173 412

L173 411

Z

M245 380

C245 379 245 372 245 363

L246 349

L256 348

L267 348

L267 364

L267 381

L256 381

L246 381

L245 380

Z

M125 329

C121 327 120 324 120 320

C120 316 122 313 126 310

C130 308 380 308 385 310

C394 314 394 327 385 330

C384 331 333 331 256 331

C132 331 128 331 125 329

Z

M132 284

L132 276

L134 275

C139 274 139 275 139 184

C139 101 139 99 141 95

C143 90 146 87 151 84

C154 82 156 81 168 81

C180 81 181 80 183 78

C185 77 186 75 186 74

L186 73

L194 73

L201 73

L201 76

C201 85 207 94 215 98

C219 100 220 101 256 101

C292 101 293 100 297 98

C305 94 311 85 311 76

L311 73

L319 73

L326 73

L326 74

C326 75 327 77 329 78

C331 80 332 81 344 81

C357 81 358 82 362 85

C367 88 371 93 372 98

C373 100 373 132 373 185

C373 237 373 270 374 271

C375 273 376 275 377 275

C380 276 380 277 380 284

L380 292

L256 292

L132 292

L132 284

Z

M221 82

C218 80 218 79 218 72

C218 65 218 64 221 62

C223 60 224 60 256 60

C288 60 289 60 291 62

C294 64 294 65 294 72

C294 79 294 80 291 82

C289 84 288 84 256 84

C224 84 223 84 221 82

Z

M249 32

C249 20 250 17 256 17

C262 17 263 20 263 32

L263 43

L256 43

L249 43

L249 32

Z

"/>

<path fill="#fad26b" stroke="none" d="
M116 494

C116 494 119 481 122 467

C133 415 135 405 138 389

C140 380 142 372 142 370

C142 369 141 367 139 365

C137 363 136 362 138 357

L139 351

L139 352

L140 354

L139 351

L139 348

L158 348

L176 348

L176 350

C175 351 175 354 174 357

L174 361

L173 360

L172 360

L173 361

L173 363

L171 363

C167 363 165 367 161 384

C157 403 152 426 144 464

C141 479 138 492 137 493

L137 495

L126 495

L116 495

L116 494

Z

M375 493

C374 492 371 479 368 464

C360 426 355 403 351 384

C347 367 345 363 341 363

L339 363

L339 361

L340 360

L339 360

L338 361

L338 357

C337 354 337 351 336 350

L336 348

L354 348

L373 348

L373 351

L372 353

L373 353

L374 352

L375 357

C376 362 375 363 373 365

C371 367 370 369 370 370

C370 372 372 380 374 389

C377 405 379 415 390 467

C393 481 396 494 396 494

L396 495

L386 495

L375 495

L375 493

Z

M245 450

C245 449 245 444 245 439

L246 430

L256 429

L267 429

L267 430

C267 431 267 436 267 441

L267 451

L256 451

L246 451

L245 450

Z

M173 411

C173 411 174 408 174 405

L176 399

L256 399

L336 399

L338 405

C338 408 339 411 339 411

L339 412

L256 412

L173 412

L173 411

Z

M245 380

C245 379 245 372 245 363

L246 349

L256 348

L267 348

L267 364

L267 381

L256 381

L246 381

L245 380

Z

M125 329

C121 327 120 324 120 320

C120 316 122 313 126 310

C130 308 380 308 385 310

C394 314 394 327 385 330

C384 331 333 331 256 331

C132 331 128 331 125 329

Z

M132 284

L132 276

L134 275

C139 274 139 275 139 184

C139 101 139 99 141 95

C143 90 146 87 151 84

C154 82 156 81 168 81

C180 81 181 80 183 78

C185 77 186 75 186 74

L186 73

L194 73

L201 73

L201 76

C201 85 207 94 215 98

C219 100 220 101 256 101

C292 101 293 100 297 98

C305 94 311 85 311 76

L311 73

L319 73

L326 73

L326 74

C326 75 327 77 329 78

C331 80 332 81 344 81

C357 81 358 82 362 85

C367 88 371 93 372 98

C373 100 373 132 373 185

C373 237 373 270 374 271

C375 273 376 275 377 275

C380 276 380 277 380 284

L380 292

L256 292

L132 292

L132 284

Z

M249 32

C249 20 250 17 256 17

C262 17 263 20 263 32

L263 43

L256 43

L249 43

L249 32

Z

"/>

<path fill="#d9e5fd" stroke="none" d="
M132 284

L132 276

L134 275

C139 274 139 275 139 184

C139 101 139 99 141 95

C143 90 146 87 151 84

C154 82 156 81 168 81

C180 81 181 80 183 78

C185 77 186 75 186 74

L186 73

L194 73

L201 73

L201 76

C201 85 207 94 215 98

C219 100 220 101 256 101

C292 101 293 100 297 98

C305 94 311 85 311 76

L311 73

L319 73

L326 73

L326 74

C326 75 327 77 329 78

C331 80 332 81 344 81

C357 81 358 82 362 85

C367 88 371 93 372 98

C373 100 373 132 373 185

C373 237 373 270 374 271

C375 273 376 275 377 275

C380 276 380 277 380 284

L380 292

L256 292

L132 292

L132 284

Z

"/>

<path fill="#ffffff" stroke="none" d="
"/>

</svg>

