<?xml version="1.0" encoding="UTF-8" standalone="no"?>
<!DOCTYPE svg PUBLIC "-//W3C//DTD SVG 1.1//EN" "http://www.w3.org/Graphics/SVG/1.1/DTD/svg11.dtd">
<!-- Created with Vectornator (http://vectornator.io/) -->
<svg height="100%" stroke-miterlimit="10" style="fill-rule:nonzero;clip-rule:evenodd;stroke-linecap:round;stroke-linejoin:round;" version="1.1" viewBox="0 0 512 512" width="100%" xml:space="preserve" xmlns="http://www.w3.org/2000/svg" xmlns:vectornator="http://vectornator.io" xmlns:xlink="http://www.w3.org/1999/xlink">
<defs/>
<g id="Untitled" vectornator:layerName="Untitled">
<path d="M101 511C96 508 96 510 112 436C122 387 127 367 128 366C129 365 131 364 132 364L135 364L135 362C137 354 138 350 138 349L138 347L133 347C121 347 111 341 106 331C104 327 104 325 104 319C104 313 105 310 108 306C112 300 118 295 125 294L131 293L131 284L131 276L128 275C126 275 125 273 124 272C123 271 123 244 123 182C124 94 124 94 126 88C132 76 143 67 155 65C163 64 177 64 181 65C182 66 184 67 184 69L185 72L194 72L202 72L202 68C202 62 204 57 208 53C213 48 218 45 225 44L232 44L232 31C232 20 233 18 235 13C236 11 239 7 242 5C251-2 264-1 273 7C278 13 280 19 280 33L280 44L286 44C290 45 295 46 297 47C305 51 310 59 310 68L310 72L318 72L327 72L328 69C328 67 330 66 331 65C335 64 349 64 357 65C369 67 380 76 386 88C389 94 389 94 389 182C389 244 389 271 388 272C387 273 386 275 384 275L381 276L381 284L381 293L387 294C394 295 400 300 404 306C407 311 408 313 408 319C408 326 408 328 406 332C401 342 391 347 379 347L374 347L374 349C374 350 375 354 377 362L377 364L380 364C381 364 383 365 384 366C385 367 390 387 400 436C416 510 416 508 410 511C409 512 400 512 387 512C367 512 366 512 364 510C361 508 360 504 352 469C348 447 344 429 343 429C343 428 330 428 313 428L284 428L284 444C284 461 283 464 279 466C278 467 269 467 256 467C227 467 230 469 229 446L229 429L199 428C183 428 169 428 169 429C168 429 164 447 160 469C152 504 151 508 148 510C146 512 145 512 125 512C112 512 103 511 101 511ZM229 365L229 347L203 347L177 347L176 352C176 354 175 358 174 360L174 364L175 364C176 364 177 365 178 366C180 368 180 369 180 375L179 382L204 382L229 382L229 365ZM332 375C332 369 332 368 334 366C335 365 336 364 337 364L338 364L338 360C337 358 336 354 336 352L335 347L309 347L284 347L284 365L284 382L309 382L333 382L332 375Z" fill="#0a0e17" fill-rule="nonzero" opacity="1" stroke="none" vectornator:layerName="path"/>
<path d="M101 511C96 508 96 510 112 436C122 387 127 367 128 366C129 365 131 364 132 364L135 364L135 362C137 354 138 350 138 349L138 347L133 347C121 347 111 341 106 331C104 327 104 325 104 319C104 313 105 310 108 306C112 300 118 295 125 294L131 293L131 284L131 276L128 275C123 274 123 277 123 181C124 93 124 93 127 87C132 76 143 67 155 65C163 64 177 64 181 65C182 66 184 67 184 69L185 72L194 72L202 72L202 68C202 62 204 57 208 53C212 48 218 45 226 44L232 44L232 31C232 20 233 18 235 13C236 11 239 7 242 5C251-2 264-1 273 7C278 13 280 19 280 33L280 44L286 44C300 46 310 55 310 68L310 72L318 72L327 72L328 69C328 67 330 66 331 65C335 64 349 64 357 65C369 67 380 76 385 87C389 93 389 93 389 181C389 277 389 274 384 275L381 276L381 284L381 293L387 294C394 295 400 300 404 306C407 311 408 313 408 319C408 326 408 328 406 332C401 342 391 347 379 347L374 347L374 349C374 350 375 354 377 362L377 364L380 364C381 364 383 365 384 366C385 367 390 387 400 436C416 510 416 508 410 511C409 512 400 512 387 512C366 512 366 512 363 509C361 507 360 501 353 469C348 448 344 431 344 430L343 428L314 428L284 428L284 444C284 461 283 464 279 466C278 467 268 467 256 467C227 467 230 469 229 446L229 429L199 428L169 428L168 430C168 431 164 448 159 469C152 501 151 507 149 509C146 512 146 512 125 512C112 512 103 511 101 511ZM229 365L229 347L203 347L177 347L176 352C176 354 175 358 174 360L174 364L175 364C176 364 177 365 178 366C180 368 180 369 180 375L179 382L204 382L229 382L229 365ZM332 375C332 369 332 368 334 366C335 365 336 364 337 364L338 364L338 360C337 358 336 354 336 352L335 347L309 347L284 347L284 365L284 382L309 382L333 382L332 375Z" fill="#2b3d64" fill-rule="nonzero" opacity="1" stroke="none" vectornator:layerName="path"/>
<path d="M115 496L114 495L118 477C120 468 124 449 127 436C130 423 134 404 136 395C142 368 142 370 138 366C135 363 135 363 137 355L139 347L158 347L177 347L176 349C176 351 176 355 175 358C174 362 173 363 171 364C166 366 166 366 160 394C158 405 154 423 152 433C147 454 140 486 139 491C139 493 138 495 138 496C137 497 117 498 115 496ZM374 496C374 495 373 493 373 491C372 486 365 454 360 433C358 423 354 405 352 394C346 366 346 366 341 364C339 363 338 362 337 358C336 355 336 351 336 349L336 347L354 347L373 347L375 355C377 363 377 363 374 366C372 368 371 370 371 370C371 371 373 381 375 392C378 403 382 423 385 436C388 449 392 468 394 477L398 495L397 496C395 498 375 497 374 496ZM244 451C244 450 244 445 244 439L245 429L256 428C264 428 268 428 268 429C269 431 269 448 268 450L268 452L256 452L245 452L244 451ZM172 412C172 412 172 408 173 404L175 398L256 398L337 398L339 404C340 408 340 412 340 412L339 414L256 414L173 414L172 412ZM244 381C244 380 244 372 244 363L245 348L257 348L269 348L269 365L269 382L257 382L245 382L244 381ZM125 330C119 328 117 320 121 314C124 308 116 308 256 308C396 308 388 308 391 314C393 318 393 324 391 327C388 332 395 332 256 332C145 332 128 332 125 330ZM132 293C131 293 131 289 131 285C131 277 131 277 135 273C138 270 138 270 138 184C138 99 138 99 140 93C145 83 152 80 169 79C181 79 181 79 183 75C185 72 186 72 194 72L202 72L202 75C202 79 205 87 208 91C209 93 213 95 215 97C220 99 221 99 256 99C291 99 292 99 297 97C299 95 303 93 304 91C307 87 310 79 310 75L310 72L318 72C326 72 327 72 329 75C331 79 331 79 343 79C353 79 356 80 360 82C366 84 369 89 372 95C374 98 374 103 374 184C374 270 374 270 378 274C381 277 381 277 381 285L381 294L256 294C188 294 132 294 132 293ZM221 82C218 80 218 79 218 72C218 65 218 64 221 62C223 60 224 60 256 60C288 60 289 60 291 62C294 64 294 65 294 72C294 79 294 80 291 82C289 84 288 84 256 84C224 84 223 84 221 82ZM248 44C246 42 247 24 248 20C251 14 261 14 264 20C265 24 266 42 264 44C263 44 260 45 256 45C252 45 249 44 248 44Z" fill="#ff0000" fill-rule="nonzero" opacity="1" stroke="none" vectornator:layerName="path"/>
<path d="M115 496L114 495L118 477C120 468 124 449 127 436C130 423 134 404 136 395C142 368 142 370 138 366C135 363 135 363 137 355L139 347L158 347L177 347L176 349C176 351 176 355 175 358C174 362 173 363 171 364C166 366 166 366 160 394C158 405 154 423 152 433C147 454 140 486 139 491C139 493 138 495 138 496C137 497 117 498 115 496ZM374 496C374 495 373 493 373 491C372 486 365 454 360 433C358 423 354 405 352 394C346 366 346 366 341 364C339 363 338 362 337 358C336 355 336 351 336 349L336 347L354 347L373 347L375 355C377 363 377 363 374 366C372 368 371 370 371 370C371 371 373 381 375 392C378 403 382 423 385 436C388 449 392 468 394 477L398 495L397 496C395 498 375 497 374 496ZM244 451C244 450 244 445 244 439L245 429L256 428C264 428 268 428 268 429C269 431 269 448 268 450L268 452L256 452L245 452L244 451ZM172 412C172 412 172 408 173 404L175 398L256 398L337 398L339 404C340 408 340 412 340 412L339 414L256 414L173 414L172 412ZM244 381C244 380 244 372 244 363L245 348L257 348L269 348L269 365L269 382L257 382L245 382L244 381ZM125 330C119 328 117 320 121 314C124 308 116 308 256 308C396 308 388 308 391 314C393 318 393 324 391 327C388 332 395 332 256 332C145 332 128 332 125 330ZM132 293C131 293 131 289 131 285C131 277 131 277 135 273C138 270 138 270 138 184C138 99 138 99 140 93C145 83 152 80 169 79C181 79 181 79 183 75C185 72 186 72 194 72L202 72L202 75C202 79 205 87 208 91C209 93 213 95 215 97C220 99 221 99 256 99C291 99 292 99 297 97C299 95 303 93 304 91C307 87 310 79 310 75L310 72L318 72C326 72 327 72 329 75C331 79 331 79 343 79C353 79 356 80 360 82C366 84 369 89 372 95C374 98 374 103 374 184C374 270 374 270 378 274C381 277 381 277 381 285L381 294L256 294C188 294 132 294 132 293ZM221 82C218 80 218 79 218 72C218 65 218 64 221 62C223 60 224 60 256 60C288 60 289 60 291 62C294 64 294 65 294 72C294 79 294 80 291 82C289 84 288 84 256 84C224 84 223 84 221 82ZM248 44C246 42 247 24 248 20C251 14 261 14 264 20C265 24 266 42 264 44C263 44 260 45 256 45C252 45 249 44 248 44Z" fill="#858582" fill-rule="nonzero" opacity="1" stroke="none" vectornator:layerName="path"/>
<path d="M116 494C116 494 119 481 122 467C133 415 135 405 138 389C140 380 142 372 142 370C142 369 141 367 139 365C137 363 136 362 137 359C137 357 138 354 138 352L139 348L158 348L176 348L176 349C176 349 176 351 175 353C175 356 174 359 174 360L173 363L171 363C167 363 165 367 161 384C157 403 152 426 144 464C141 479 138 492 137 493L137 495L126 495L116 495L116 494ZM375 493C374 492 371 479 368 464C360 426 355 403 351 384C347 367 345 363 341 363L339 363L338 360C338 359 337 356 337 353C336 351 336 349 336 349L336 348L354 348L373 348L374 355C376 363 376 363 373 365C371 367 370 369 370 370C370 372 372 380 374 389C377 405 379 415 390 467C393 481 396 494 396 494L396 495L386 495L375 495L375 493ZM245 450C245 449 245 444 245 439L246 430L256 429L267 429L267 430C267 431 267 436 267 441L267 451L256 451L246 451L245 450ZM173 411C173 411 174 408 174 405L176 399L256 399L336 399L338 405C338 408 339 411 339 411L339 412L256 412L173 412L173 411ZM245 380C245 379 245 372 245 363L246 349L256 348L267 348L267 364L267 381L256 381L246 381L245 380ZM125 329C121 327 120 324 120 320C120 316 122 313 126 310C130 308 380 308 385 310C394 314 394 327 385 330C384 331 333 331 256 331C132 331 128 331 125 329ZM132 284L132 276L134 275C139 274 139 275 139 184C139 101 139 99 141 95C143 90 146 87 151 84C154 82 156 81 168 81C180 81 181 80 183 78C185 77 186 75 186 74L186 73L194 73L201 73L201 76C201 85 207 94 215 98C219 100 220 101 256 101C292 101 293 100 297 98C305 94 311 85 311 76L311 73L319 73L326 73L326 74C326 75 327 77 329 78C331 80 332 81 344 81C357 81 358 82 362 85C367 88 371 93 372 98C373 100 373 132 373 185C373 237 373 270 374 271C375 273 376 275 377 275C380 276 380 277 380 284L380 292L256 292L132 292L132 284ZM221 82C218 80 218 79 218 72C218 65 218 64 221 62C223 60 224 60 256 60C288 60 289 60 291 62C294 64 294 65 294 72C294 79 294 80 291 82C289 84 288 84 256 84C224 84 223 84 221 82ZM249 32C249 20 250 17 256 17C262 17 263 20 263 32L263 43L256 43L249 43L249 32Z" fill="#27ccf9" fill-rule="nonzero" opacity="1" stroke="none" vectornator:layerName="path"/>
<path d="M116 494C116 494 119 481 122 467C133 415 135 405 138 389C140 380 142 372 142 370C142 369 141 367 139 365C137 363 136 362 138 357L139 351L139 352L140 354L139 351L139 348L158 348L176 348L176 350C175 351 175 354 174 357L174 361L173 360L172 360L173 361L173 363L171 363C167 363 165 367 161 384C157 403 152 426 144 464C141 479 138 492 137 493L137 495L126 495L116 495L116 494ZM375 493C374 492 371 479 368 464C360 426 355 403 351 384C347 367 345 363 341 363L339 363L339 361L340 360L339 360L338 361L338 357C337 354 337 351 336 350L336 348L354 348L373 348L373 351L372 353L373 353L374 352L375 357C376 362 375 363 373 365C371 367 370 369 370 370C370 372 372 380 374 389C377 405 379 415 390 467C393 481 396 494 396 494L396 495L386 495L375 495L375 493ZM245 450C245 449 245 444 245 439L246 430L256 429L267 429L267 430C267 431 267 436 267 441L267 451L256 451L246 451L245 450ZM173 411C173 411 174 408 174 405L176 399L256 399L336 399L338 405C338 408 339 411 339 411L339 412L256 412L173 412L173 411ZM245 380C245 379 245 372 245 363L246 349L256 348L267 348L267 364L267 381L256 381L246 381L245 380ZM125 329C121 327 120 324 120 320C120 316 122 313 126 310C130 308 380 308 385 310C394 314 394 327 385 330C384 331 333 331 256 331C132 331 128 331 125 329ZM132 284L132 276L134 275C139 274 139 275 139 184C139 101 139 99 141 95C143 90 146 87 151 84C154 82 156 81 168 81C180 81 181 80 183 78C185 77 186 75 186 74L186 73L194 73L201 73L201 76C201 85 207 94 215 98C219 100 220 101 256 101C292 101 293 100 297 98C305 94 311 85 311 76L311 73L319 73L326 73L326 74C326 75 327 77 329 78C331 80 332 81 344 81C357 81 358 82 362 85C367 88 371 93 372 98C373 100 373 132 373 185C373 237 373 270 374 271C375 273 376 275 377 275C380 276 380 277 380 284L380 292L256 292L132 292L132 284ZM249 32C249 20 250 17 256 17C262 17 263 20 263 32L263 43L256 43L249 43L249 32Z" fill="#fad26b" fill-rule="nonzero" opacity="1" stroke="none" vectornator:layerName="path"/>
<path d="M132 284L132 276L134 275C139 274 139 275 139 184C139 101 139 99 141 95C143 90 146 87 151 84C154 82 156 81 168 81C180 81 181 80 183 78C185 77 186 75 186 74L186 73L194 73L201 73L201 76C201 85 207 94 215 98C219 100 220 101 256 101C292 101 293 100 297 98C305 94 311 85 311 76L311 73L319 73L326 73L326 74C326 75 327 77 329 78C331 80 332 81 344 81C357 81 358 82 362 85C367 88 371 93 372 98C373 100 373 132 373 185C373 237 373 270 374 271C375 273 376 275 377 275C380 276 380 277 380 284L380 292L256 292L132 292L132 284Z" fill="#d9e5fd" fill-rule="nonzero" opacity="1" stroke="none" vectornator:layerName="path"/>
<g fill="#31096d" opacity="1" stroke="none" vectornator:layerName="Text 1">
<path d="M184.685 212.064C181.405 212.064 178.545 211.414 176.105 210.114C173.665 208.814 171.785 206.974 170.465 204.594C169.145 202.214 168.485 199.464 168.485 196.344C168.485 192.384 169.475 188.674 171.455 185.214C173.435 181.754 176.105 178.984 179.465 176.904C182.825 174.824 186.465 173.784 190.385 173.784C193.385 173.784 196.095 174.344 198.515 175.464C200.935 176.584 202.845 178.204 204.245 180.324C205.645 182.444 206.345 184.924 206.345 187.764C206.345 190.084 205.885 192.344 204.965 194.544C204.045 196.744 202.745 198.544 201.065 199.944C199.385 201.344 197.485 202.044 195.365 202.044C193.765 202.044 192.655 201.644 192.035 200.844C191.415 200.044 191.105 198.864 191.105 197.304L191.105 197.064C190.265 198.624 189.205 199.864 187.925 200.784C186.645 201.704 185.205 202.164 183.605 202.164C181.765 202.164 180.305 201.584 179.225 200.424C178.145 199.264 177.605 197.664 177.605 195.624C177.605 193.584 178.135 191.594 179.195 189.654C180.255 187.714 181.755 186.144 183.695 184.944C185.635 183.744 187.845 183.144 190.325 183.144C192.165 183.144 193.715 183.454 194.975 184.074C196.235 184.694 196.865 185.504 196.865 186.504C196.865 186.904 196.835 187.334 196.775 187.794C196.715 188.254 196.625 188.664 196.505 189.024C196.265 189.624 195.925 189.924 195.485 189.924C195.325 189.924 195.125 189.884 194.885 189.804C194.725 190.764 194.645 191.944 194.645 193.344C194.645 196.344 195.425 197.844 196.985 197.844C198.345 197.844 199.505 197.044 200.465 195.444C201.425 193.844 201.905 192.044 201.905 190.044C201.905 187.844 201.305 185.924 200.105 184.284C198.905 182.644 197.315 181.384 195.335 180.504C193.355 179.624 191.225 179.184 188.945 179.184C186.105 179.184 183.475 179.874 181.055 181.254C178.635 182.634 176.715 184.494 175.295 186.834C173.875 189.174 173.165 191.684 173.165 194.364C173.165 196.964 173.825 199.194 175.145 201.054C176.465 202.914 178.265 204.324 180.545 205.284C182.825 206.244 185.365 206.724 188.165 206.724C190.565 206.724 192.745 206.424 194.705 205.824C194.945 205.704 195.185 205.644 195.425 205.644C195.785 205.644 196.055 205.754 196.235 205.974C196.415 206.194 196.505 206.464 196.505 206.784C196.505 207.344 196.195 207.964 195.575 208.644C194.955 209.324 194.145 209.924 193.145 210.444C191.985 210.964 190.655 211.364 189.155 211.644C187.655 211.924 186.165 212.064 184.685 212.064ZM185.225 196.884C186.225 196.884 187.125 196.574 187.925 195.954C188.725 195.334 189.385 194.504 189.905 193.464C190.385 192.224 190.725 190.704 190.925 188.904C189.565 188.544 188.425 188.364 187.505 188.364C185.905 188.364 184.575 188.844 183.515 189.804C182.455 190.764 181.925 191.964 181.925 193.404C181.925 194.444 182.225 195.284 182.825 195.924C183.425 196.564 184.225 196.884 185.225 196.884Z"/>
<path d="M220.445 206.664C217.605 206.664 215.405 205.814 213.845 204.114C212.285 202.414 211.505 200.044 211.505 197.004C211.505 194.044 212.145 191.374 213.425 188.994C214.705 186.614 216.475 184.744 218.735 183.384C220.995 182.024 223.525 181.344 226.325 181.344C228.245 181.344 229.765 181.664 230.885 182.304C232.005 182.944 232.565 183.824 232.565 184.944C232.565 185.944 232.085 186.924 231.125 187.884C230.765 188.244 230.295 188.574 229.715 188.874C229.135 189.174 228.685 189.324 228.365 189.324C228.005 189.324 227.705 189.184 227.465 188.904C226.905 188.344 226.315 187.894 225.695 187.554C225.075 187.214 224.245 187.044 223.205 187.044C221.205 187.044 219.595 187.714 218.375 189.054C217.155 190.394 216.545 192.144 216.545 194.304C216.545 196.304 217.105 197.894 218.225 199.074C219.345 200.254 220.825 200.844 222.665 200.844C223.665 200.844 224.735 200.674 225.875 200.334C227.015 199.994 228.005 199.504 228.845 198.864C229.285 198.464 229.745 198.264 230.225 198.264C231.025 198.264 231.425 198.764 231.425 199.764C231.425 201.084 230.765 202.344 229.445 203.544C228.405 204.464 227.065 205.214 225.425 205.794C223.785 206.374 222.125 206.664 220.445 206.664Z"/>
<path d="M245.825 206.664C242.985 206.664 240.755 205.904 239.135 204.384C237.515 202.864 236.705 200.664 236.705 197.784C236.705 195.104 237.405 192.584 238.805 190.224C238.165 190.624 237.685 190.824 237.365 190.824C236.925 190.824 236.605 190.574 236.405 190.074C236.205 189.574 236.105 189.024 236.105 188.424C236.105 187.064 236.665 185.924 237.785 185.004C238.865 184.084 240.315 183.244 242.135 182.484C243.955 181.724 245.985 181.344 248.225 181.344C251.665 181.344 254.335 182.304 256.235 184.224C258.135 186.144 259.085 188.824 259.085 192.264C259.085 194.944 258.525 197.384 257.405 199.584C256.285 201.784 254.715 203.514 252.695 204.774C250.675 206.034 248.385 206.664 245.825 206.664ZM247.685 200.544C249.725 200.544 251.425 199.904 252.785 198.624C254.145 197.344 254.825 195.684 254.825 193.644C254.825 191.604 254.165 190.094 252.845 189.114C251.525 188.134 249.865 187.644 247.865 187.644C246.465 187.644 245.065 187.924 243.665 188.484C242.225 190.524 241.505 192.524 241.505 194.484C241.505 196.404 242.085 197.894 243.245 198.954C244.405 200.014 245.885 200.544 247.685 200.544Z"/>
<path d="M271.205 206.664C268.805 206.664 266.915 205.864 265.535 204.264C264.155 202.664 263.465 200.484 263.465 197.724C263.465 194.964 264.045 192.324 265.205 189.804C266.365 187.284 267.955 185.244 269.975 183.684C271.995 182.124 274.225 181.344 276.665 181.344C278.865 181.344 280.765 181.984 282.365 183.264C282.285 179.984 282.115 177.364 281.855 175.404C281.595 173.444 281.045 171.624 280.205 169.944C279.845 169.144 279.665 168.604 279.665 168.324C279.665 167.524 280.145 166.784 281.105 166.104C282.065 165.424 283.025 165.084 283.985 165.084C285.465 165.084 286.455 165.984 286.955 167.784C287.455 169.584 287.705 172.284 287.705 175.884C287.705 178.524 287.605 180.854 287.405 182.874C287.205 184.894 286.905 187.444 286.505 190.524C286.105 193.204 285.905 194.964 285.905 195.804C285.905 197.164 286.225 198.284 286.865 199.164C287.505 200.044 288.405 200.604 289.565 200.844C290.205 200.964 290.525 201.384 290.525 202.104C290.525 203.064 290.155 204.024 289.415 204.984C288.675 205.944 287.465 206.424 285.785 206.424C284.145 206.424 283.005 205.874 282.365 204.774C281.725 203.674 281.405 201.884 281.405 199.404C280.205 201.564 278.735 203.314 276.995 204.654C275.255 205.994 273.325 206.664 271.205 206.664ZM273.065 200.244C274.185 200.244 275.305 199.884 276.425 199.164C277.545 198.444 278.545 197.464 279.425 196.224C280.265 194.984 281.125 193.124 282.005 190.644C279.965 188.804 277.705 187.884 275.225 187.884C273.105 187.884 271.395 188.524 270.095 189.804C268.795 191.084 268.145 192.704 268.145 194.664C268.145 196.304 268.615 197.644 269.555 198.684C270.495 199.724 271.665 200.244 273.065 200.244Z"/>
<path d="M303.845 206.664C300.805 206.664 298.435 205.794 296.735 204.054C295.035 202.314 294.185 199.884 294.185 196.764C294.185 194.004 294.805 191.444 296.045 189.084C297.285 186.724 298.965 184.854 301.085 183.474C303.205 182.094 305.505 181.404 307.985 181.404C310.385 181.404 312.305 181.994 313.745 183.174C315.185 184.354 315.905 185.924 315.905 187.884C315.905 189.444 315.425 190.884 314.465 192.204C313.505 193.524 312.215 194.574 310.595 195.354C308.975 196.134 307.205 196.524 305.285 196.524C304.165 196.524 303.085 196.384 302.045 196.104C301.005 195.824 300.125 195.424 299.405 194.904C299.445 196.744 300.075 198.224 301.295 199.344C302.515 200.464 304.085 201.024 306.005 201.024C307.165 201.024 308.355 200.814 309.575 200.394C310.795 199.974 311.845 199.404 312.725 198.684C313.285 198.204 313.805 197.964 314.285 197.964C314.685 197.964 315.015 198.094 315.275 198.354C315.535 198.614 315.665 198.944 315.665 199.344C315.665 200.224 314.905 201.384 313.385 202.824C310.705 205.384 307.525 206.664 303.845 206.664ZM304.745 192.564C306.185 192.564 307.385 192.264 308.345 191.664C309.305 191.064 309.785 190.304 309.785 189.384C309.785 188.624 309.465 188.034 308.825 187.614C308.185 187.194 307.305 186.984 306.185 186.984C304.665 186.984 303.365 187.374 302.285 188.154C301.205 188.934 300.425 190.024 299.945 191.424C300.505 191.784 301.225 192.064 302.105 192.264C302.985 192.464 303.865 192.564 304.745 192.564Z"/>
</g>
</g>
</svg>
